<?xml version="1.0" encoding="UTF-8" standalone="no"?>
<!DOCTYPE svg PUBLIC "-//W3C//DTD SVG 1.1//EN" "http://www.w3.org/Graphics/SVG/1.1/DTD/svg11.dtd">
<svg width="100%" height="100%" viewBox="0 0 1082 330" version="1.1" xmlns="http://www.w3.org/2000/svg" xmlns:xlink="http://www.w3.org/1999/xlink" xml:space="preserve" xmlns:serif="http://www.serif.com/" style="fill-rule:evenodd;clip-rule:evenodd;stroke-linejoin:round;stroke-miterlimit:2;">
    <g transform="matrix(4.16667,0,0,4.16667,386.835,143.672)">
        <path d="M0,-10.743L-5.09,-10.743L-5.09,-13.072L7.853,-13.072L7.853,-10.743L2.697,-10.743L2.697,2.329L0,2.329L0,-10.743Z" style="fill-rule:nonzero;"/>
    </g>
    <g transform="matrix(4.16667,0,0,4.16667,422.329,153.378)">
        <path d="M0,-11.433L7.508,-11.433L7.508,-9.319L2.502,-9.319L2.502,-6.924L7.334,-6.924L7.334,-4.811L2.502,-4.811L2.502,-2.116L7.637,-2.116L7.637,0L0,0L0,-11.433Z" style="fill-rule:nonzero;"/>
    </g>
    <g transform="matrix(4.16667,0,0,4.16667,506.093,107.906)">
        <path d="M0,10.417C-1.187,10.937 -2.223,11.151 -3.517,11.151C-7.442,11.151 -9.967,8.93 -9.967,5.435C-9.967,1.747 -7.292,-0.734 -3.301,-0.734C-2.072,-0.734 -1.166,-0.54 0,-0.046L0,2.2C-1.036,1.615 -1.879,1.4 -3.021,1.4C-5.653,1.4 -7.314,2.868 -7.314,5.196C-7.314,7.505 -5.695,8.909 -3.063,8.909C-1.92,8.909 -1.014,8.691 0,8.151L0,10.417Z" style="fill-rule:nonzero;"/>
    </g>
    <g transform="matrix(4.16667,0,0,4.16667,518.935,153.378)">
        <path d="M0,-11.475L2.027,-11.475C2.868,-11.475 3.126,-11.346 3.516,-10.721L7.441,-4.617C7.895,-3.925 8.153,-3.323 8.607,-1.918C8.348,-3.278 8.283,-3.905 8.283,-4.704L8.283,-11.475L10.613,-11.475L10.613,0L8.586,0C7.744,0 7.485,-0.129 7.097,-0.755L3.171,-6.859C2.718,-7.551 2.459,-8.153 2.005,-9.555C2.265,-8.219 2.33,-7.572 2.33,-6.773L2.33,0L0,0L0,-11.475Z" style="fill-rule:nonzero;"/>
    </g>
    <g transform="matrix(4.16667,0,0,4.16667,600.262,113.656)">
        <path d="M0,7.657C2.028,7.657 3.213,6.256 3.213,3.816C3.213,1.401 2.028,0 0,0C-2.029,0 -3.214,1.401 -3.214,3.816C-3.214,6.256 -2.029,7.657 0,7.657M0.064,-2.135C3.646,-2.135 5.866,0.107 5.866,3.73C5.866,7.442 3.559,9.792 -0.063,9.792C-3.646,9.792 -5.866,7.529 -5.866,3.924C-5.866,0.193 -3.559,-2.135 0.064,-2.135" style="fill-rule:nonzero;"/>
    </g>
    <g transform="matrix(4.16667,0,0,4.16667,637.376,153.378)">
        <path d="M0,-11.475L2.501,-11.475L2.501,-2.116L7.635,-2.116L7.635,0L0,0L0,-11.475Z" style="fill-rule:nonzero;"/>
    </g>
    <g transform="matrix(4.16667,0,0,4.16667,699.562,113.656)">
        <path d="M0,7.657C2.027,7.657 3.214,6.256 3.214,3.816C3.214,1.401 2.027,0 0,0C-2.027,0 -3.214,1.401 -3.214,3.816C-3.214,6.256 -2.027,7.657 0,7.657M0.063,-2.135C3.646,-2.135 5.868,0.107 5.868,3.73C5.868,7.442 3.559,9.792 -0.065,9.792C-3.646,9.792 -5.868,7.529 -5.868,3.924C-5.868,0.193 -3.561,-2.135 0.063,-2.135" style="fill-rule:nonzero;"/>
    </g>
    <g transform="matrix(4.16667,0,0,4.16667,756.354,131.171)">
        <path d="M0,-0.817L4.961,-0.817L4.961,5.048C3.775,5.353 2.416,5.501 1.1,5.501C-3.063,5.501 -5.5,3.412 -5.5,-0.149C-5.5,-3.881 -2.825,-6.318 1.294,-6.318C2.61,-6.318 3.688,-6.124 4.94,-5.629L4.94,-3.363C3.775,-3.968 2.87,-4.183 1.597,-4.183C-1.187,-4.183 -2.848,-2.715 -2.848,-0.194C-2.848,2.115 -1.358,3.495 1.166,3.495C1.597,3.495 2.007,3.433 2.46,3.326L2.46,1.146L0,1.146L0,-0.817Z" style="fill-rule:nonzero;"/>
    </g>
    <g transform="matrix(4.16667,0,0,4.16667,-2207.81,-839.913)">
        <path d="M719.853,226.915L722.355,226.915L722.355,238.39L719.853,238.39L719.853,226.915ZM723.154,220.981L725.396,221.199L721.407,225.621L719.68,225.317L723.154,220.981Z" style="fill-rule:nonzero;"/>
    </g>
    <g transform="matrix(4.16667,0,0,4.16667,842.893,126.24)">
        <path d="M0,1.551L-0.109,1.163C-0.28,0.648 -0.453,0.194 -0.583,-0.218L-0.971,-1.339C-1.271,-2.2 -1.294,-2.224 -1.424,-2.591C-1.489,-2.419 -1.531,-2.287 -1.552,-2.245L-1.941,-1.294L-2.33,-0.239L-2.848,1.121C-2.848,1.121 -2.933,1.316 -3.02,1.551L0,1.551ZM-7.247,6.038C-6.687,4.485 -5.953,2.63 -5.069,0.495C-4.357,-1.211 -3.904,-2.266 -2.87,-4.574L-2.697,-4.962L0.043,-4.962L0.217,-4.553C0.971,-2.761 1.576,-1.231 2.265,0.581C2.957,2.437 3.688,4.485 4.206,5.976L4.379,6.513L1.704,6.513L1.617,6.232C1.402,5.585 1.251,5.09 1.144,4.765L0.798,3.751L0.711,3.516L-3.797,3.516L-3.904,3.796C-4.271,4.765 -4.552,5.523 -4.789,6.232L-4.897,6.513L-7.42,6.513L-7.247,6.038Z" style="fill-rule:nonzero;"/>
    </g>
    <g transform="matrix(4.16667,0,0,4.16667,867.873,118.598)">
        <path d="M0,5.305C0.948,6.062 2.155,6.492 3.343,6.492C4.509,6.492 5.283,6.018 5.283,5.305C5.283,5.07 5.177,4.789 5.003,4.617C4.702,4.291 4.442,4.142 3.083,3.516C1.854,2.935 1.314,2.61 0.884,2.177C0.345,1.682 0.042,0.907 0.042,0.063C0.042,-1.941 1.812,-3.321 4.378,-3.321C5.563,-3.321 6.515,-3.106 7.614,-2.546L7.614,-0.194C6.664,-0.841 5.63,-1.186 4.636,-1.186C3.494,-1.186 2.695,-0.691 2.695,0C2.695,0.215 2.803,0.474 2.954,0.603C3.148,0.776 3.388,0.928 3.688,1.076C4.012,1.229 4.442,1.402 4.962,1.637C6.19,2.201 6.729,2.568 7.204,3.083C7.678,3.644 7.937,4.357 7.937,5.156C7.937,7.29 6.233,8.626 3.494,8.626C2.2,8.626 1.056,8.347 0,7.744L0,5.305Z" style="fill-rule:nonzero;"/>
    </g>
    <g transform="matrix(4.16667,0,0,4.16667,937.783,134.959)">
        <path d="M0,-0.273C0.357,-0.255 0.545,-0.255 0.748,-0.255C2.094,-0.255 2.755,-0.733 2.755,-1.702C2.755,-2.671 2.126,-3.181 0.886,-3.181C0.697,-3.181 0.443,-3.163 0.17,-3.13L0,-3.13L0,-0.273ZM-1.971,-4.576L-1.734,-4.591C-0.459,-4.66 0.137,-4.693 0.732,-4.693C2.094,-4.693 2.976,-4.472 3.657,-3.998C4.354,-3.502 4.746,-2.689 4.746,-1.716C4.746,0.254 3.367,1.325 0.852,1.325C0.613,1.325 0.393,1.31 0,1.291L0,4.42L-1.971,4.42L-1.971,-4.576Z" style="fill-rule:nonzero;"/>
    </g>
    <g transform="matrix(4.16667,0,0,4.16667,982.631,131.972)">
        <path d="M0,1.227L-0.083,0.92C-0.221,0.512 -0.355,0.154 -0.459,-0.168L-0.763,-1.053C-1.002,-1.734 -1.02,-1.749 -1.121,-2.038C-1.172,-1.904 -1.205,-1.799 -1.223,-1.766L-1.529,-1.018L-1.835,-0.186L-2.243,0.887C-2.243,0.887 -2.311,1.04 -2.379,1.227L0,1.227ZM-5.713,4.764C-5.271,3.539 -4.693,2.078 -3.995,0.393C-3.435,-0.949 -3.076,-1.785 -2.26,-3.603L-2.124,-3.91L0.036,-3.91L0.17,-3.585C0.767,-2.175 1.244,-0.967 1.787,0.461C2.332,1.922 2.909,3.539 3.318,4.713L3.453,5.137L1.346,5.137L1.277,4.916C1.106,4.406 0.987,4.015 0.902,3.759L0.63,2.959L0.562,2.775L-2.992,2.775L-3.076,2.996C-3.366,3.759 -3.586,4.356 -3.774,4.916L-3.857,5.137L-5.848,5.137L-5.713,4.764Z" style="fill-rule:nonzero;"/>
    </g>
    <g transform="matrix(4.16667,0,0,4.16667,1012.96,136.017)">
        <path d="M0,-0.781L0.152,-0.781C0.374,-0.781 0.544,-0.73 0.697,-0.73C2.092,-0.73 2.721,-1.157 2.721,-2.057C2.721,-2.958 2.107,-3.435 0.9,-3.435C0.611,-3.435 0.391,-3.417 0,-3.402L0,-0.781ZM-1.973,-4.845L-1.769,-4.863C-0.885,-4.914 0.119,-4.947 0.766,-4.947C2.107,-4.947 2.957,-4.761 3.639,-4.317C4.318,-3.877 4.711,-3.095 4.711,-2.177C4.711,-0.951 4.165,-0.17 2.976,0.34L3.128,0.528L3.706,1.277C4.541,2.328 5.713,3.641 6.291,4.166L3.655,4.166C3.504,3.981 3.485,3.963 3.214,3.641C2.704,3.027 2.107,2.263 1.666,1.634L1.088,0.799L1.003,0.68C0.85,0.698 0.748,0.698 0.663,0.698C0.595,0.698 0.441,0.698 0.204,0.68L0,0.68L0,4.166L-1.973,4.166L-1.973,-4.845Z" style="fill-rule:nonzero;"/>
    </g>
    <g transform="matrix(4.16667,0,0,4.16667,1066.88,131.972)">
        <path d="M0,1.227L-0.085,0.92C-0.22,0.512 -0.357,0.154 -0.459,-0.168L-0.765,-1.053C-1.003,-1.734 -1.02,-1.749 -1.121,-2.038C-1.173,-1.904 -1.208,-1.799 -1.224,-1.766L-1.529,-1.018L-1.837,-0.186L-2.245,0.887C-2.245,0.887 -2.312,1.04 -2.379,1.227L0,1.227ZM-5.713,4.764C-5.271,3.539 -4.693,2.078 -3.995,0.393C-3.435,-0.949 -3.077,-1.785 -2.262,-3.603L-2.126,-3.91L0.034,-3.91L0.171,-3.585C0.767,-2.175 1.242,-0.967 1.786,0.461C2.331,1.922 2.907,3.539 3.315,4.713L3.453,5.137L1.345,5.137L1.276,4.916C1.106,4.406 0.987,4.015 0.901,3.759L0.63,2.959L0.561,2.775L-2.993,2.775L-3.077,2.996C-3.366,3.759 -3.587,4.356 -3.774,4.916L-3.859,5.137L-5.851,5.137L-5.713,4.764Z" style="fill-rule:nonzero;"/>
    </g>
    <g transform="matrix(4.16667,0,0,4.16667,369.541,240.853)">
        <path d="M0,-9.047L1.974,-9.047L1.974,-1.667L6.021,-1.667L6.021,0L0,0L0,-9.047Z" style="fill-rule:nonzero;"/>
    </g>
    <g transform="matrix(4.16667,0,0,4.16667,423.175,219.456)">
        <path d="M0,1.223L-0.084,0.916C-0.221,0.507 -0.355,0.153 -0.459,-0.173L-0.764,-1.055C-1.002,-1.735 -1.02,-1.753 -1.121,-2.042C-1.172,-1.905 -1.206,-1.803 -1.223,-1.771L-1.529,-1.022L-1.835,-0.187L-2.244,0.883C-2.244,0.883 -2.311,1.036 -2.379,1.223L0,1.223ZM-5.713,4.759C-5.271,3.537 -4.693,2.073 -3.996,0.388C-3.435,-0.954 -3.077,-1.789 -2.26,-3.607L-2.125,-3.912L0.036,-3.912L0.17,-3.589C0.767,-2.179 1.244,-0.971 1.786,0.456C2.332,1.92 2.909,3.537 3.317,4.709L3.453,5.135L1.345,5.135L1.276,4.911C1.106,4.402 0.987,4.011 0.902,3.758L0.629,2.958L0.562,2.771L-2.992,2.771L-3.077,2.992C-3.366,3.758 -3.587,4.351 -3.775,4.911L-3.858,5.135L-5.849,5.135L-5.713,4.759Z" style="fill-rule:nonzero;"/>
    </g>
    <g transform="matrix(4.16667,0,0,4.16667,-2207.81,-656.617)">
        <rect x="640.478" y="199.988" width="2.695" height="15.404"/>
    </g>
    <g transform="matrix(4.16667,0,0,4.16667,487.62,240.854)">
        <path d="M0,-11.477L2.027,-11.477C2.868,-11.477 3.128,-11.349 3.516,-10.723L7.442,-4.62C7.896,-3.927 8.155,-3.323 8.608,-1.92C8.349,-3.281 8.283,-3.907 8.283,-4.703L8.283,-11.477L10.613,-11.477L10.613,0L8.586,0C7.744,0 7.486,-0.131 7.097,-0.758L3.171,-6.862C2.719,-7.55 2.46,-8.156 2.007,-9.557C2.266,-8.221 2.33,-7.575 2.33,-6.775L2.33,0L0,0L0,-11.477Z" style="fill-rule:nonzero;"/>
    </g>
    <g transform="matrix(4.16667,0,0,4.16667,547.467,240.854)">
        <path d="M0,-11.477L7.55,-11.477L7.55,-9.364L2.502,-9.364L2.502,-6.709L7.355,-6.709L7.355,-4.595L2.502,-4.595L2.502,0L0,0L0,-11.477Z" style="fill-rule:nonzero;"/>
    </g>
    <g transform="matrix(4.16667,0,0,4.16667,611.277,201.124)">
        <path d="M0,7.656C2.027,7.656 3.215,6.255 3.215,3.819C3.215,1.4 2.027,0 0,0C-2.027,0 -3.215,1.4 -3.215,3.819C-3.215,6.255 -2.027,7.656 0,7.656M0.064,-2.136C3.645,-2.136 5.868,0.106 5.868,3.732C5.868,7.441 3.559,9.792 -0.065,9.792C-3.646,9.792 -5.868,7.528 -5.868,3.927C-5.868,0.193 -3.561,-2.136 0.064,-2.136" style="fill-rule:nonzero;"/>
    </g>
    <g transform="matrix(4.16667,0,0,4.16667,658.811,218.835)">
        <path d="M0,-0.995L0.193,-0.995C0.475,-0.995 0.69,-0.93 0.886,-0.93C2.654,-0.93 3.451,-1.47 3.451,-2.611C3.451,-3.757 2.675,-4.358 1.144,-4.358C0.777,-4.358 0.496,-4.338 0,-4.317L0,-0.995ZM-2.502,-6.151L-2.242,-6.172C-1.121,-6.237 0.152,-6.279 0.973,-6.279C2.675,-6.279 3.754,-6.04 4.615,-5.479C5.479,-4.919 5.976,-3.927 5.976,-2.764C5.976,-1.21 5.285,-0.218 3.775,0.43L3.969,0.665L4.702,1.616C5.761,2.952 7.249,4.613 7.982,5.284L4.639,5.284C4.443,5.046 4.422,5.025 4.076,4.613C3.43,3.838 2.675,2.866 2.114,2.069L1.381,1.011L1.273,0.862C1.08,0.883 0.949,0.883 0.841,0.883C0.754,0.883 0.561,0.883 0.26,0.862L0,0.862L0,5.284L-2.502,5.284L-2.502,-6.151Z" style="fill-rule:nonzero;"/>
    </g>
    <g transform="matrix(4.16667,0,0,4.16667,698.619,195.371)">
        <path d="M0,10.355C0.065,9.124 0.13,7.875 0.216,6.47C0.323,5.047 0.433,3.56 0.519,2.609L0.755,-0.129L0.799,-0.561L3.106,-0.561C4.294,-0.561 4.442,-0.409 5.222,1.681C5.456,2.328 5.909,3.56 6.235,4.507C6.903,6.47 7.075,7.14 7.227,8.715C7.377,7.162 7.55,6.47 8.218,4.507C8.499,3.688 8.951,2.438 9.231,1.681C10.01,-0.388 10.16,-0.561 11.346,-0.561L13.546,-0.561L13.591,-0.129L13.827,2.609C13.913,3.581 14.065,5.456 14.173,6.989C14.237,7.96 14.28,8.801 14.345,10.355L14.366,10.916L11.864,10.916L11.864,10.635C11.844,10.203 11.821,9.49 11.778,8.498C11.712,7.421 11.691,6.601 11.649,6.082L11.497,3.515L11.497,2.826C11.497,2.394 11.519,2.027 11.584,1.228L11.541,1.228C11.304,2.373 11.346,2.287 10.44,4.636C9.987,5.802 9.083,8.435 8.391,10.462L8.24,10.916L6.019,10.916L5.868,10.462L5.308,8.757C5.198,8.456 5.112,8.197 4.875,7.529C4.358,6.041 4.056,5.22 3.841,4.636C2.935,2.307 2.978,2.415 2.74,1.228L2.695,1.228C2.761,2.027 2.782,2.373 2.782,2.826C2.782,3.085 2.782,3.321 2.761,3.515L2.61,6.082C2.546,7.269 2.438,9.664 2.415,10.635L2.415,10.916L-0.021,10.916L0,10.355Z" style="fill-rule:nonzero;"/>
    </g>
    <g transform="matrix(4.16667,0,0,4.16667,797.202,213.707)">
        <path d="M0,1.553L-0.106,1.165C-0.28,0.647 -0.453,0.194 -0.581,-0.215L-0.97,-1.339C-1.272,-2.201 -1.294,-2.221 -1.424,-2.589C-1.487,-2.416 -1.53,-2.288 -1.554,-2.246L-1.94,-1.295L-2.329,-0.239L-2.847,1.12C-2.847,1.12 -2.934,1.315 -3.021,1.553L0,1.553ZM-7.249,6.038C-6.688,4.488 -5.954,2.63 -5.069,0.494C-4.356,-1.208 -3.904,-2.266 -2.868,-4.574L-2.695,-4.962L0.044,-4.962L0.215,-4.553C0.971,-2.761 1.575,-1.231 2.267,0.581C2.955,2.436 3.688,4.488 4.208,5.976L4.379,6.515L1.704,6.515L1.618,6.235C1.401,5.587 1.253,5.089 1.144,4.768L0.8,3.754L0.713,3.515L-3.796,3.515L-3.904,3.796C-4.27,4.768 -4.552,5.522 -4.788,6.235L-4.896,6.515L-7.42,6.515L-7.249,6.038Z" style="fill-rule:nonzero;"/>
    </g>
    <g transform="matrix(4.16667,0,0,4.16667,861.993,195.365)">
        <path d="M0,10.419C-1.187,10.939 -2.221,11.152 -3.516,11.152C-7.441,11.152 -9.965,8.931 -9.965,5.437C-9.965,1.748 -7.29,-0.733 -3.301,-0.733C-2.07,-0.733 -1.166,-0.539 0,-0.041L0,2.201C-1.034,1.62 -1.877,1.402 -3.02,1.402C-5.651,1.402 -7.312,2.869 -7.312,5.201C-7.312,7.509 -5.695,8.91 -3.062,8.91C-1.92,8.91 -1.014,8.692 0,8.156L0,10.419Z" style="fill-rule:nonzero;"/>
    </g>
    <g transform="matrix(4.16667,0,0,4.16667,-2207.81,-640.246)">
        <rect x="739.837" y="199.987" width="2.502" height="11.477"/>
    </g>
    <g transform="matrix(4.16667,0,0,4.16667,930.735,241.922)">
        <path d="M0,-17.667L2.243,-17.45L-1.746,-13.028L-3.473,-13.308L0,-17.667ZM-2.006,-2.136C0.021,-2.136 1.208,-3.537 1.208,-5.973C1.208,-8.392 0.021,-9.792 -2.006,-9.792C-4.033,-9.792 -5.221,-8.392 -5.221,-5.973C-5.221,-3.537 -4.033,-2.136 -2.006,-2.136M-1.94,-11.928C1.641,-11.928 3.862,-9.686 3.862,-6.06C3.862,-2.351 1.555,0 -2.07,0C-5.651,0 -7.873,-2.264 -7.873,-5.865C-7.873,-9.599 -5.564,-11.928 -1.94,-11.928" style="fill-rule:nonzero;"/>
    </g>
    <g transform="matrix(4.16667,0,0,4.16667,959.487,240.854)">
        <path d="M0,-11.477L2.027,-11.477C2.869,-11.477 3.128,-11.349 3.516,-10.723L7.442,-4.62C7.896,-3.927 8.155,-3.323 8.608,-1.92C8.35,-3.281 8.283,-3.907 8.283,-4.703L8.283,-11.477L10.613,-11.477L10.613,0L8.586,0C7.744,0 7.486,-0.131 7.097,-0.758L3.172,-6.862C2.72,-7.55 2.46,-8.156 2.007,-9.557C2.266,-8.221 2.33,-7.575 2.33,-6.775L2.33,0L0,0L0,-11.477Z" style="fill-rule:nonzero;"/>
    </g>
    <g transform="matrix(4.16667,0,0,4.16667,369.541,328.321)">
        <path d="M0,-9.015L5.919,-9.015L5.919,-7.348L1.974,-7.348L1.974,-5.46L5.782,-5.46L5.782,-3.793L1.974,-3.793L1.974,-1.667L6.021,-1.667L6.021,0L0,0L0,-9.015Z" style="fill-rule:nonzero;"/>
    </g>
    <g transform="matrix(4.16667,0,0,4.16667,405.398,328.32)">
        <path d="M0,-9.047L1.599,-9.047C2.262,-9.047 2.466,-8.945 2.771,-8.454L5.866,-3.641C6.223,-3.096 6.429,-2.621 6.785,-1.516C6.581,-2.586 6.53,-3.08 6.53,-3.71L6.53,-9.047L8.366,-9.047L8.366,0L6.769,0C6.104,0 5.901,-0.105 5.594,-0.597L2.499,-5.409C2.142,-5.952 1.938,-6.43 1.58,-7.535C1.786,-6.48 1.837,-5.97 1.837,-5.341L1.837,0L0,0L0,-9.047Z" style="fill-rule:nonzero;"/>
    </g>
    <g transform="matrix(4.16667,0,0,4.16667,524.518,267.002)">
        <path d="M0,14.024C-1.467,14.671 -2.976,14.972 -4.854,14.972C-7.203,14.972 -9.082,14.391 -10.548,13.183C-12.295,11.761 -13.224,9.668 -13.224,7.229C-13.224,2.42 -9.643,-0.948 -4.508,-0.948C-2.911,-0.948 -1.574,-0.664 0,0.003L0,2.505C-1.445,1.707 -2.631,1.406 -4.207,1.406C-7.959,1.406 -10.29,3.586 -10.29,7.035C-10.29,10.488 -7.982,12.623 -4.27,12.623C-2.695,12.623 -1.424,12.277 0,11.502L0,14.024Z" style="fill-rule:nonzero;"/>
    </g>
    <g transform="matrix(4.16667,0,0,4.16667,-2207.81,-465.317)">
        <rect x="658.798" y="178.995" width="2.502" height="11.478"/>
    </g>
    <g transform="matrix(4.16667,0,0,4.16667,563.247,328.322)">
        <path d="M0,-11.436L7.505,-11.436L7.505,-9.322L2.502,-9.322L2.502,-6.927L7.332,-6.927L7.332,-4.813L2.502,-4.813L2.502,-2.115L7.635,-2.115L7.635,0L0,0L0,-11.436Z" style="fill-rule:nonzero;"/>
    </g>
    <g transform="matrix(4.16667,0,0,4.16667,608.714,328.322)">
        <path d="M0,-11.478L2.027,-11.478C2.868,-11.478 3.126,-11.35 3.515,-10.723L7.44,-4.62C7.894,-3.928 8.153,-3.323 8.606,-1.921C8.347,-3.281 8.283,-3.907 8.283,-4.704L8.283,-11.478L10.613,-11.478L10.613,0L8.586,0C7.743,0 7.485,-0.132 7.096,-0.758L3.17,-6.862C2.717,-7.551 2.458,-8.156 2.005,-9.557C2.264,-8.221 2.33,-7.575 2.33,-6.776L2.33,0L0,0L0,-11.478Z" style="fill-rule:nonzero;"/>
    </g>
    <g transform="matrix(4.16667,0,0,4.16667,706.85,282.832)">
        <path d="M0,10.419C-1.187,10.938 -2.223,11.152 -3.518,11.152C-7.441,11.152 -9.967,8.931 -9.967,5.437C-9.967,1.747 -7.292,-0.733 -3.3,-0.733C-2.071,-0.733 -1.164,-0.539 0,-0.042L0,2.201C-1.036,1.619 -1.877,1.401 -3.02,1.401C-5.652,1.401 -7.312,2.869 -7.312,5.2C-7.312,7.509 -5.695,8.91 -3.064,8.91C-1.919,8.91 -1.014,8.692 0,8.155L0,10.419Z" style="fill-rule:nonzero;"/>
    </g>
    <g transform="matrix(4.16667,0,0,4.16667,-2207.81,-465.317)">
        <rect x="702.601" y="178.995" width="2.501" height="11.478"/>
    </g>
    <g transform="matrix(4.16667,0,0,4.16667,769.57,301.17)">
        <path d="M0,1.554L-0.108,1.166C-0.279,0.648 -0.453,0.194 -0.582,-0.215L-0.972,-1.339C-1.272,-2.2 -1.293,-2.221 -1.425,-2.588C-1.488,-2.415 -1.532,-2.287 -1.553,-2.245L-1.94,-1.294L-2.33,-0.238L-2.848,1.121C-2.848,1.121 -2.934,1.315 -3.02,1.554L0,1.554ZM-7.248,6.038C-6.687,4.488 -5.954,2.63 -5.068,0.495C-4.357,-1.207 -3.905,-2.265 -2.869,-4.574L-2.696,-4.962L0.043,-4.962L0.215,-4.552C0.97,-2.76 1.575,-1.231 2.266,0.582C2.955,2.437 3.689,4.488 4.207,5.976L4.378,6.516L1.703,6.516L1.617,6.235C1.402,5.588 1.25,5.09 1.143,4.768L0.799,3.754L0.712,3.516L-3.797,3.516L-3.905,3.796C-4.272,4.768 -4.553,5.523 -4.788,6.235L-4.896,6.516L-7.421,6.516L-7.248,6.038Z" style="fill-rule:nonzero;"/>
    </g>
    <g transform="matrix(4.16667,0,0,4.16667,794.545,293.533)">
        <path d="M0,5.307C0.949,6.062 2.157,6.492 3.344,6.492C4.508,6.492 5.285,6.017 5.285,5.307C5.285,5.069 5.176,4.788 5.005,4.616C4.702,4.293 4.444,4.141 3.086,3.515C1.854,2.934 1.316,2.609 0.886,2.179C0.346,1.681 0.043,0.906 0.043,0.066C0.043,-1.942 1.812,-3.322 4.38,-3.322C5.565,-3.322 6.516,-3.107 7.615,-2.547L7.615,-0.194C6.666,-0.841 5.629,-1.187 4.639,-1.187C3.494,-1.187 2.697,-0.692 2.697,-0.001C2.697,0.214 2.805,0.474 2.955,0.602C3.148,0.775 3.387,0.927 3.688,1.079C4.014,1.228 4.444,1.401 4.961,1.64C6.189,2.201 6.729,2.567 7.205,3.083C7.68,3.646 7.937,4.356 7.937,5.156C7.937,7.29 6.234,8.629 3.494,8.629C2.2,8.629 1.057,8.349 0,7.744L0,5.307Z" style="fill-rule:nonzero;"/>
    </g>
    <g transform="matrix(4.16667,0,0,4.16667,307.729,237.971)">
        <path d="M0,-35.409L-12.421,-35.409C-12.973,-37.478 -14.645,-39.092 -16.75,-39.551L-16.75,-52.152L0,-52.152L0,-35.409ZM-56.25,0C-55.822,2.129 -54.217,3.831 -52.145,4.406L-52.145,16.742L-68.895,16.742L-68.895,0L-56.25,0ZM-63.223,-39.381C-62.532,-37.272 -60.66,-35.701 -58.389,-35.447L-53.133,-6.322C-54.401,-5.698 -55.407,-4.625 -55.941,-3.31L-68.895,-3.31L-68.895,-39.381L-63.223,-39.381ZM-59.432,-46.695C-61.318,-46.117 -62.787,-44.598 -63.305,-42.687L-68.895,-42.687L-68.895,-52.152L-59.432,-52.152L-59.432,-46.695ZM-55.653,-42.475C-55.417,-42.099 -55.279,-41.656 -55.279,-41.179C-55.279,-41.134 -55.283,-41.092 -55.285,-41.051C-55.312,-40.537 -55.496,-40.063 -55.791,-39.679C-55.923,-39.509 -56.076,-39.357 -56.248,-39.225C-56.636,-38.928 -57.113,-38.742 -57.633,-38.722C-57.669,-38.719 -57.705,-38.716 -57.742,-38.716C-58.221,-38.716 -58.667,-38.855 -59.046,-39.092C-59.181,-39.178 -59.306,-39.273 -59.422,-39.381C-59.902,-39.831 -60.205,-40.469 -60.205,-41.179C-60.205,-41.748 -60.009,-42.269 -59.684,-42.687C-59.606,-42.786 -59.522,-42.879 -59.432,-42.965C-58.99,-43.383 -58.396,-43.641 -57.742,-43.641C-57.123,-43.641 -56.557,-43.409 -56.124,-43.03C-55.941,-42.869 -55.783,-42.684 -55.653,-42.475M-20.057,-39.301C-21.391,-38.787 -22.482,-37.797 -23.127,-36.539L-52.008,-41.81C-52.264,-44.154 -53.922,-46.072 -56.124,-46.713L-56.124,-52.152L-20.057,-52.152L-20.057,-39.301ZM-15.822,-32.752C-15.954,-32.505 -16.129,-32.287 -16.333,-32.102C-16.771,-31.703 -17.352,-31.455 -17.989,-31.455C-18.035,-31.455 -18.08,-31.461 -18.127,-31.464C-18.413,-31.478 -18.687,-31.542 -18.938,-31.646C-19.201,-31.756 -19.438,-31.911 -19.646,-32.102C-19.803,-32.245 -19.941,-32.406 -20.057,-32.585L-20.057,-32.615L-20.077,-32.618C-20.297,-32.97 -20.43,-33.379 -20.447,-33.82C-20.449,-33.852 -20.452,-33.885 -20.452,-33.918C-20.452,-34.41 -20.307,-34.866 -20.057,-35.251C-19.902,-35.489 -19.709,-35.701 -19.483,-35.871C-19.068,-36.19 -18.552,-36.381 -17.989,-36.381C-17.537,-36.381 -17.115,-36.256 -16.75,-36.044C-16.472,-35.88 -16.229,-35.666 -16.033,-35.409C-15.717,-34.994 -15.526,-34.478 -15.526,-33.918C-15.526,-33.498 -15.634,-33.097 -15.822,-32.752M-13.219,-15.5C-13.802,-15.07 -14.299,-14.539 -14.687,-13.926L-28.683,-17.819C-28.701,-18.753 -28.938,-19.633 -29.35,-20.404L-20.768,-28.861C-19.942,-28.408 -18.996,-28.148 -17.989,-28.148C-17.893,-28.148 -17.8,-28.157 -17.705,-28.163L-13.219,-15.5ZM-4.282,-12.506C-4.993,-14.886 -7.197,-16.624 -9.809,-16.624C-9.908,-16.624 -10.005,-16.611 -10.104,-16.609L-14.588,-29.266C-13.63,-29.967 -12.897,-30.951 -12.516,-32.102L0,-32.102L0,-12.506L-4.282,-12.506ZM-6.414,-6.193C-5.408,-6.927 -4.646,-7.976 -4.282,-9.199L0,-9.199L0,11.915L-6.414,-6.193ZM-12.271,-10.853C-12.271,-11.271 -12.166,-11.665 -11.982,-12.008C-11.781,-12.387 -11.481,-12.706 -11.12,-12.932C-10.74,-13.174 -10.291,-13.316 -9.809,-13.316C-9.477,-13.316 -9.16,-13.248 -8.871,-13.129C-8.531,-12.989 -8.231,-12.774 -7.988,-12.506C-7.59,-12.067 -7.346,-11.489 -7.346,-10.853C-7.346,-10.425 -7.455,-10.025 -7.646,-9.674C-7.741,-9.5 -7.857,-9.342 -7.988,-9.199C-8.383,-8.766 -8.927,-8.472 -9.541,-8.406C-9.629,-8.396 -9.718,-8.39 -9.809,-8.39C-10.149,-8.39 -10.474,-8.46 -10.77,-8.585C-11.307,-8.814 -11.744,-9.228 -12.006,-9.748C-12.11,-9.953 -12.186,-10.171 -12.229,-10.404C-12.256,-10.55 -12.271,-10.699 -12.271,-10.853M-21.805,7.242C-21.789,7.075 -21.778,6.908 -21.778,6.736C-21.778,5.79 -22.01,4.902 -22.413,4.114L-12.346,-5.678C-11.579,-5.299 -10.721,-5.084 -9.809,-5.084C-9.716,-5.084 -9.625,-5.094 -9.533,-5.096L-2.789,13.94L-21.805,7.242ZM-25.895,12.264C-24.749,11.921 -23.755,11.233 -23.029,10.317L-4.791,16.742L-25.895,16.742L-25.895,12.264ZM-29.672,7.979C-29.887,7.612 -30.012,7.189 -30.012,6.736C-30.012,6.252 -29.869,5.799 -29.626,5.418C-29.451,5.144 -29.227,4.908 -28.962,4.723C-28.562,4.44 -28.074,4.273 -27.549,4.273C-27.475,4.273 -27.402,4.279 -27.332,4.284C-27.012,4.312 -26.709,4.404 -26.437,4.541C-25.834,4.848 -25.375,5.394 -25.185,6.053C-25.123,6.265 -25.088,6.486 -25.087,6.715C-25.087,6.721 -25.086,6.73 -25.086,6.736C-25.086,7.457 -25.399,8.108 -25.895,8.558C-26.12,8.76 -26.383,8.924 -26.671,9.034C-26.944,9.139 -27.24,9.198 -27.549,9.198C-28.186,9.198 -28.764,8.954 -29.203,8.558C-29.387,8.388 -29.545,8.194 -29.672,7.979M-48.838,4.35C-47.658,3.975 -46.648,3.227 -45.935,2.248L-33.316,6.694C-33.316,6.709 -33.318,6.721 -33.318,6.736C-33.318,9.348 -31.582,11.551 -29.203,12.264L-29.203,16.742L-48.838,16.742L-48.838,4.35ZM-52.484,-2.722C-52.285,-2.958 -52.043,-3.158 -51.77,-3.31C-51.507,-3.453 -51.215,-3.549 -50.904,-3.588C-50.803,-3.599 -50.699,-3.608 -50.594,-3.608C-50.169,-3.608 -49.768,-3.501 -49.418,-3.31C-49.346,-3.268 -49.274,-3.226 -49.205,-3.179C-49.073,-3.086 -48.95,-2.982 -48.838,-2.869C-48.621,-2.648 -48.445,-2.388 -48.323,-2.099C-48.261,-1.95 -48.213,-1.795 -48.18,-1.635C-48.148,-1.476 -48.131,-1.312 -48.131,-1.145C-48.131,-0.474 -48.4,0.134 -48.838,0.578C-49.009,0.754 -49.205,0.904 -49.422,1.02C-49.771,1.21 -50.17,1.318 -50.594,1.318C-51.182,1.318 -51.721,1.112 -52.145,0.766C-52.402,0.558 -52.617,0.295 -52.773,0C-52.954,-0.344 -53.057,-0.734 -53.057,-1.145C-53.057,-1.744 -52.842,-2.293 -52.484,-2.722M-39.516,-20.465C-39.963,-19.644 -40.217,-18.705 -40.217,-17.706C-40.217,-16.713 -39.967,-15.78 -39.526,-14.966L-48.133,-6.357C-48.672,-6.614 -49.256,-6.787 -49.871,-6.864L-55.134,-36.035C-55.096,-36.056 -55.059,-36.071 -55.021,-36.089L-39.516,-20.465ZM-31.67,-22.763C-32.494,-23.217 -33.44,-23.475 -34.447,-23.475C-35.432,-23.475 -36.357,-23.228 -37.167,-22.793L-52.674,-38.418C-52.648,-38.465 -52.629,-38.513 -52.605,-38.56L-23.723,-33.286C-23.642,-32.543 -23.421,-31.846 -23.087,-31.217L-31.67,-22.763ZM-31.354,-12.84C-30.634,-13.299 -30.024,-13.91 -29.569,-14.632L-15.572,-10.74C-15.553,-9.712 -15.265,-8.755 -14.775,-7.926L-24.698,1.723C-25.512,1.261 -26.447,0.989 -27.446,0.972L-31.354,-12.84ZM-36.91,-17.706C-36.91,-17.748 -36.906,-17.789 -36.904,-17.831C-36.839,-19.096 -35.821,-20.106 -34.557,-20.163C-34.521,-20.163 -34.484,-20.169 -34.447,-20.169C-34.401,-20.169 -34.355,-20.163 -34.311,-20.16C-33.408,-20.112 -32.635,-19.576 -32.249,-18.809C-32.096,-18.506 -32.004,-18.165 -31.988,-17.805C-31.988,-17.771 -31.984,-17.739 -31.984,-17.706C-31.984,-17.226 -32.124,-16.781 -32.36,-16.403C-32.558,-16.087 -32.822,-15.822 -33.135,-15.625C-33.516,-15.383 -33.965,-15.243 -34.447,-15.243C-34.488,-15.243 -34.526,-15.246 -34.566,-15.249C-34.916,-15.263 -35.246,-15.353 -35.543,-15.503C-36.318,-15.89 -36.86,-16.672 -36.904,-17.587C-36.906,-17.626 -36.91,-17.664 -36.91,-17.706M-45.671,-4.142L-37.188,-12.625C-36.396,-12.199 -35.494,-11.954 -34.535,-11.939L-30.631,1.863C-31.311,2.296 -31.897,2.862 -32.346,3.53L-44.838,-0.871C-44.834,-0.963 -44.824,-1.053 -44.824,-1.145C-44.824,-2.246 -45.137,-3.268 -45.671,-4.142M4.961,-57.113L-73.855,-57.113L-73.855,21.704L4.961,21.704L4.961,-57.113Z" style="fill-rule:nonzero;"/>
    </g>
</svg>
